<svg width="20" height="20" viewBox="0 0 20 20" fill="none" xmlns="http://www.w3.org/2000/svg">
<g clip-path="url(#clip0_71_486)">
<path d="M10 0C4.48 0 0 4.48 0 10C0 15.52 4.48 20 10 20C15.52 20 20 15.52 20 10C20 4.48 15.52 0 10 0ZM11.4 7.38C12.1 7.38 12.84 7.36 13.54 7.4C13.52 8.14 13.54 8.92 13.52 9.66C12.82 9.66 12.1 9.66 11.4 9.66C11.4 12 11.4 14.32 11.4 16.66C10.4 16.66 9.4 16.66 8.4 16.66C8.4 14.32 8.4 12 8.4 9.66C7.78 9.64 7.12 9.66 6.48 9.64C6.48 8.88 6.48 8.12 6.48 7.36C7.12 7.36 7.76 7.36 8.38 7.36C8.4 6.76 8.38 6.22 8.42 5.74C8.46 5.26 8.62 4.86 8.84 4.52C9.28 3.88 10 3.36 10.98 3.32C11.78 3.28 12.68 3.34 13.54 3.34C13.54 4.1 13.56 4.88 13.52 5.62C13.1 5.64 12.66 5.58 12.3 5.62C11.92 5.66 11.64 5.88 11.52 6.16C11.34 6.5 11.4 6.92 11.4 7.38Z" fill="white"/>
</g>
<defs>
<clipPath id="clip0_71_486">
<rect width="20" height="20" fill="white"/>
</clipPath>
</defs>
</svg>
