<svg width="18" height="16" viewBox="0 0 18 16" fill="none" xmlns="http://www.w3.org/2000/svg">
<path d="M8.99997 3.2298L2.58035 9.14107C2.58035 9.14942 2.57848 9.16169 2.57472 9.17842C2.57105 9.19502 2.56909 9.20707 2.56909 9.21563V15.2014C2.56909 15.4176 2.63983 15.6048 2.78128 15.7626C2.92268 15.9204 3.09013 15.9998 3.28366 15.9998H7.57076V11.211H10.4292V16H14.7163C14.9098 16 15.0775 15.9207 15.2187 15.7626C15.3601 15.605 15.4311 15.4176 15.4311 15.2014V9.21563C15.4311 9.18244 15.427 9.15737 15.4198 9.14107L8.99997 3.2298Z" fill="white"/>
<path d="M17.8758 7.79423L15.4309 5.52459V0.43657C15.4309 0.320253 15.3974 0.224597 15.3303 0.149731C15.2636 0.074953 15.178 0.0375638 15.0736 0.0375638H12.93C12.8258 0.0375638 12.7402 0.074953 12.6731 0.149731C12.6062 0.224597 12.5728 0.320297 12.5728 0.43657V2.8683L9.84861 0.324228C9.6107 0.108061 9.32781 0 9.00026 0C8.67276 0 8.38991 0.108061 8.15176 0.324228L0.124063 7.79423C0.0496462 7.86062 0.00885956 7.94999 0.00127316 8.06224C-0.00627413 8.17441 0.0197308 8.27238 0.0793661 8.35546L0.771566 9.2783C0.831201 9.35308 0.909255 9.39881 1.00604 9.41554C1.0954 9.42393 1.18475 9.39475 1.27411 9.32827L9.00003 2.13253L16.726 9.32823C16.7857 9.38624 16.8637 9.41519 16.9605 9.41519H16.9941C17.0907 9.39877 17.1686 9.35273 17.2285 9.27813L17.9208 8.35541C17.9803 8.27216 18.0064 8.17437 17.9987 8.06207C17.991 7.95012 17.9501 7.86075 17.8758 7.79423Z" fill="white"/>
</svg>
