<svg width="40" height="40" viewBox="0 0 40 40" fill="none" xmlns="http://www.w3.org/2000/svg">
<path d="M20.0402 23.36C21.6802 23.36 23.1602 22 23.2402 20.32C23.3602 18.08 21.4402 16.68 19.5202 16.92C18.1202 17.12 17.0802 18.08 16.8002 19.48C16.3602 21.68 18.2402 23.36 20.0402 23.36Z" fill="white"/>
<path d="M28.5199 10.64H25.9999C25.6399 10.64 25.3599 10.92 25.3599 11.28V13.8C25.3599 14.16 25.6399 14.44 25.9999 14.44H28.5199C28.8799 14.44 29.1599 14.16 29.1599 13.8V11.28C29.1999 10.92 28.8799 10.64 28.5199 10.64Z" fill="white"/>
<path d="M20 0C8.96 0 0 8.96 0 20C0 31.04 8.96 40 20 40C31.04 40 40 31.04 40 20C40 8.96 31.04 0 20 0ZM31.24 26.08C31.24 27.6 30.96 28.76 30.16 29.68C29.44 30.48 28.48 31.16 27.12 31.28C24.88 31.44 22.48 31.28 20.08 31.28C17.8 31.28 15.36 31.44 13.04 31.28C10.76 31.12 9 29.44 8.84 27.08C8.6 23.96 9 20.28 8.84 16.92C8.84 16.84 8.88 16.76 8.96 16.76C11.08 16.76 13.16 16.76 15.28 16.76C15.48 16.88 15.12 17.16 15 17.36C14.56 18.16 14.24 19.36 14.36 20.68C14.52 23.32 16.76 25.6 19.6 25.8C21.68 25.96 23.36 24.96 24.4 23.68C25.36 22.52 26.16 20.48 25.44 18.32C25.36 18.04 25.2 17.76 25.04 17.52C24.92 17.28 24.72 17.04 24.72 16.76C26.88 16.76 29 16.76 31.16 16.76C31.28 20.04 31.24 23.04 31.24 26.08ZM15.6 20.2C15.56 18.76 16.24 17.6 16.92 16.92C17.6 16.24 18.44 15.8 19.76 15.72C22.2 15.56 24.2 17.28 24.44 19.52C24.68 22 22.96 24.2 20.72 24.48C20.32 24.52 19.76 24.52 19.36 24.48C17.4 24.28 15.64 22.48 15.6 20.2ZM31.24 16.12C29.44 16.12 27.8 16.12 25.96 16.12C25.4 16.12 24.72 16.24 24.2 16.12C23.88 16.04 23.72 15.72 23.44 15.52C22.56 14.88 21.2 14.32 19.52 14.44C18.28 14.52 17.44 14.96 16.64 15.6C16.44 15.76 16.12 16.08 15.88 16.16C15.4 16.28 14.68 16.16 14.08 16.16C12.36 16.16 10.68 16.16 8.84 16.16C8.92 14.84 8.68 13.56 8.88 12.44C9.12 11.12 9.92 10.2 10.72 9.64C10.72 11.2 10.72 14.32 10.72 14.32H11.6C11.6 14.32 11.52 10.72 11.64 9.08C11.76 8.96 12.04 9 12.2 8.88C12.32 10.56 12.32 14.32 12.32 14.32H13.2C13.2 14.32 13.2 10.72 13.2 8.92C13.2 8.84 13.2 8.76 13.24 8.76C13.44 8.76 13.6 8.76 13.8 8.76C13.8 10.6 13.8 14.32 13.8 14.32H14.72C14.72 14.32 14.72 10.6 14.72 8.76C18.48 8.96 23.32 8.52 27 8.76C28.44 8.84 29.64 9.56 30.32 10.44C31.32 11.72 31.28 13.6 31.24 16.12Z" fill="white"/>
</svg>
