<svg width="20" height="20" viewBox="0 0 20 20" fill="none" xmlns="http://www.w3.org/2000/svg">
<g clip-path="url(#clip0_71_475)">
<path d="M10 0C4.48 0 0 4.48 0 10C0 15.52 4.48 20 10 20C15.52 20 20 15.52 20 10C20 4.48 15.52 0 10 0ZM15.34 7.28C15.4 9.1 14.88 10.56 14.2 11.7C13.54 12.82 12.64 13.72 11.56 14.36C10.48 15.02 9.04 15.5 7.34 15.44C5.76 15.4 4.5 14.94 3.48 14.32C3.42 14.28 3.34 14.24 3.3 14.18C5.06 14.38 6.4 13.8 7.36 13.06C6.66 13.04 6.12 12.8 5.72 12.46C5.32 12.14 4.98 11.7 4.8 11.14C5.16 11.22 5.68 11.2 6 11.1C5.34 10.96 4.86 10.6 4.48 10.16C4.1 9.74 3.84 9.16 3.84 8.36C3.86 8.32 3.92 8.38 3.96 8.4C4.26 8.54 4.64 8.66 5.06 8.68C4.38 8.2 3.7 7.28 3.9 5.98C3.96 5.6 4.08 5.28 4.24 5C4.42 5.18 4.58 5.38 4.76 5.56C6 6.8 7.6 7.7 9.92 7.88C9.6 6.46 10.34 5.4 11.24 4.88C11.74 4.6 12.44 4.46 13.12 4.6C13.74 4.72 14.22 5.04 14.58 5.4C15.26 5.28 15.8 5.02 16.32 4.74C16.08 5.4 15.7 5.92 15.12 6.24C15.68 6.2 16.22 6 16.68 5.82C16.34 6.4 15.86 6.86 15.34 7.28Z" fill="white"/>
</g>
<defs>
<clipPath id="clip0_71_475">
<rect width="20" height="20" fill="white"/>
</clipPath>
</defs>
</svg>
