<svg width="20" height="20" viewBox="0 0 20 20" fill="none" xmlns="http://www.w3.org/2000/svg">
<path d="M7.68002 11.1C7.68002 10.84 7.68002 10.6 7.68002 10.34C6.92002 10.34 6.16002 10.34 5.42002 10.34C5.40002 10.34 5.42002 10.36 5.42002 10.36C5.42002 10.6 5.42002 10.84 5.42002 11.08C5.68002 11.08 5.96002 11.06 6.18002 11.08C6.18002 12.44 6.18002 13.82 6.18002 15.18C6.42002 15.18 6.68002 15.18 6.92002 15.18C6.92002 13.82 6.90002 12.42 6.92002 11.06C7.18002 11.1 7.42002 11.1 7.68002 11.1Z" fill="white"/>
<path d="M8.90005 13.94C8.90005 14.06 8.92005 14.2 8.90005 14.28C8.88005 14.38 8.62005 14.58 8.48005 14.56C8.28005 14.54 8.34005 14.14 8.34005 13.92C8.34005 13.12 8.34005 12.36 8.34005 11.58C8.12005 11.58 7.90005 11.58 7.70005 11.58C7.68005 11.58 7.70005 11.6 7.70005 11.6C7.70005 12.38 7.70005 13.4 7.70005 14.26C7.70005 14.58 7.68005 14.88 7.80005 15.04C8.04005 15.4 8.60005 15.1 8.78005 14.92C8.82005 14.88 8.86005 14.82 8.92005 14.8C8.92005 14.92 8.92005 15.06 8.92005 15.18C9.14005 15.18 9.36005 15.18 9.58005 15.18C9.58005 13.98 9.58005 12.78 9.58005 11.58C9.36005 11.58 9.14005 11.58 8.92005 11.58C8.90005 12.34 8.90005 13.2 8.90005 13.94Z" fill="white"/>
<path d="M9.28006 7.12C9.28006 7.28 9.26006 7.56 9.32006 7.66C9.44006 7.84 9.76006 7.76 9.82006 7.6C9.88006 7.46 9.84006 7.22 9.84006 7.06C9.84006 6.62 9.84006 6.36 9.84006 5.94C9.84006 5.74 9.88006 5.5 9.82006 5.4C9.76006 5.28 9.60006 5.26 9.50006 5.28C9.22006 5.32 9.28006 5.68 9.28006 5.98C9.28006 6.28 9.28006 6.8 9.28006 7.12Z" fill="white"/>
<path d="M10 0C4.48 0 0 4.48 0 10C0 15.52 4.48 20 10 20C15.52 20 20 15.52 20 10C20 4.48 15.52 0 10 0ZM11.08 6.58C11.08 5.92 11.08 5.3 11.08 4.74C11.28 4.72 11.54 4.72 11.74 4.74C11.74 5.18 11.74 5.64 11.74 6.12C11.74 6.6 11.7 7.1 11.74 7.52C11.78 7.76 11.96 7.74 12.12 7.62C12.18 7.58 12.28 7.5 12.3 7.44C12.32 7.36 12.3 7.2 12.3 7.1C12.3 6.36 12.3 5.48 12.3 4.76C12.5 4.74 12.76 4.74 12.96 4.76C12.96 5.94 12.96 7.12 12.96 8.3C12.76 8.32 12.5 8.32 12.3 8.3C12.3 8.18 12.3 8.06 12.3 7.94C12.14 8.12 11.62 8.58 11.26 8.28C10.98 8.02 11.08 7.1 11.08 6.58ZM9.44 4.64C9.92 4.6 10.24 4.78 10.4 5.06C10.58 5.36 10.52 6.04 10.52 6.48C10.52 6.92 10.56 7.62 10.42 7.92C10.2 8.34 9.5 8.54 9.04 8.24C8.8 8.1 8.64 7.82 8.62 7.52C8.58 7.2 8.62 6.82 8.62 6.46C8.62 5.92 8.56 5.38 8.72 5.08C8.84 4.86 9.08 4.68 9.44 4.64ZM6.14 3.48C6.36 3.46 6.64 3.48 6.88 3.48C7.04 4.04 7.18 4.62 7.32 5.18C7.34 5.26 7.34 5.34 7.4 5.4C7.46 5.34 7.46 5.24 7.48 5.18C7.62 4.62 7.76 4.02 7.9 3.48C8.14 3.48 8.38 3.48 8.64 3.48C8.42 4.28 8.14 5.12 7.9 5.94C7.86 6.06 7.8 6.18 7.8 6.3C7.78 6.46 7.8 6.64 7.8 6.8C7.8 7.32 7.8 7.8 7.8 8.3C7.56 8.3 7.3 8.32 7.06 8.3C7.06 7.98 7.06 7.66 7.06 7.36C7.06 7.04 7.1 6.72 7.06 6.42C7.04 6.3 6.98 6.18 6.96 6.06C6.66 5.18 6.42 4.3 6.14 3.48ZM15.4 14.78C15.4 15.76 14.62 16.54 13.64 16.54H6.34C5.36 16.54 4.58 15.76 4.58 14.78V11C4.58 10.02 5.36 9.24 6.34 9.24H13.64C14.62 9.24 15.4 10.02 15.4 11V14.78Z" fill="white"/>
<path d="M12.1001 13.48C12.1001 13.06 12.1201 12.64 12.1001 12.36C12.0801 12.06 12.0001 11.8 11.8401 11.68C11.6201 11.5 11.2801 11.54 11.0801 11.68C11.0001 11.74 10.9401 11.82 10.8601 11.86C10.8601 11.36 10.8601 10.84 10.8601 10.34C10.6401 10.34 10.4201 10.34 10.2001 10.34C10.1801 10.34 10.2001 10.36 10.2001 10.36C10.2001 11.98 10.2001 13.58 10.2001 15.2C10.4201 15.2 10.6401 15.2 10.8601 15.2C10.8601 15.12 10.8601 15.02 10.8601 14.94C11.0401 15.16 11.4401 15.34 11.7801 15.18C11.9601 15.08 12.0801 14.86 12.1001 14.6C12.1201 14.28 12.1001 13.88 12.1001 13.48ZM11.3201 14.68C11.1601 14.78 10.9801 14.64 10.8801 14.54C10.8801 14.06 10.8801 13.44 10.8801 12.9C10.8801 12.72 10.8401 12.48 10.8801 12.36C10.9201 12.24 11.1401 12.14 11.3001 12.24C11.5201 12.36 11.4201 13.12 11.4201 13.46C11.4201 13.68 11.4201 13.9 11.4201 14.14C11.4201 14.34 11.4401 14.6 11.3201 14.68Z" fill="white"/>
<path d="M14.54 13.88C14.32 13.88 14.08 13.88 13.86 13.88C13.84 14.14 13.92 14.52 13.74 14.64C13.68 14.68 13.54 14.72 13.42 14.66C13.14 14.54 13.32 13.88 13.26 13.52C13.68 13.52 14.1 13.52 14.52 13.52C14.5 13.02 14.56 12.54 14.48 12.14C14.38 11.74 14.04 11.48 13.52 11.5C13.04 11.52 12.66 11.86 12.6 12.28C12.54 12.7 12.58 13.34 12.58 13.9C12.58 14.5 12.64 14.9 12.98 15.14C13.26 15.34 13.78 15.36 14.12 15.16C14.48 14.96 14.56 14.52 14.54 13.88ZM13.34 12.28C13.42 12.16 13.64 12.16 13.76 12.24C13.92 12.36 13.86 12.68 13.88 12.92C13.68 12.92 13.48 12.92 13.3 12.92C13.28 12.68 13.24 12.42 13.34 12.28Z" fill="white"/>
</svg>
